# xmcd
#
# Track frame offsets: 
#        150
#        79529
#        104034
#        123857
#        140382
#        158603
#        178503
#        199570
#        217538
#
# Disc length: 3076 seconds
#
# Revision: 4
# Processed by: cddbd v1.5.2PL0 Copyright (c) Steve Scherf et al.
# Submitted via: ExactAudioCopy v0.99pb4
#
DISCID=680c0209
DTITLE=Isaac Hayes - Wonderful
DYEAR=1994
DGENRE=Soul
TTITLE0=Ain't No Sunshine
TTITLE1=Rolling Down A Mountainside
TTITLE2=I Can't Help It (If I'm Still In Love With You)
TTITLE3=Wonderful
TTITLE4=Someone Made You For Me 
TTITLE5=Ain't That Loving You (For More Reasons Than One) 
TTITLE6=Baby I'm-A Want You
TTITLE7=The Mistletoe And Me
TTITLE8=Winter Snow
EXTD=© 2004\nLabel: Stax Records (Fantasy Inc.]\nSCD24 8585-2\n24 BIT 
EXTD=Remastered\n1970 - 1974\nAll selections previously released as En
EXTD=terprise singles, except #1 and 2
EXTT0=1972
EXTT1=1972
EXTT2=1971
EXTT3=1974
EXTT4=1974
EXTT5=1972
EXTT6=1972
EXTT7=1970
EXTT8=1970
PLAYORDER=
